<svg xmlns="http://www.w3.org/2000/svg" viewBox="0 0 128 128"><path fill="#F34F29" d="M124.7 58.4L69.6 3.3c-3.1-3.1-8.2-3.1-11.3 0l-11.4 11.4 14.4 14.4c3.4-1.1 7.2-.4 9.9 2.2 2.7 2.7 3.3 6.5 2.2 9.9l13.9 13.9c3.4-1.1 7.2-.5 9.9 2.2 3.8 3.8 3.8 9.9 0 13.7-3.8 3.8-9.9 3.8-13.7 0-2.9-2.9-3.5-7.1-1.9-10.7L68.8 47.5v35.5c.9.5 1.8 1.1 2.6 1.8 3.8 3.8 3.8 9.9 0 13.7-3.8 3.8-9.9 3.8-13.7 0-3.8-3.8-3.8-9.9 0-13.7.9-.9 2-1.6 3.2-2.1V46.6c-1.1-.5-2.2-1.2-3.2-2.1-2.9-2.9-3.5-7.1-1.8-10.6L41.7 19.6 3.3 58c-3.1 3.1-3.1 8.2 0 11.3l55.1 55.1c3.1 3.1 8.2 3.1 11.3 0l55.1-55.1c3.1-3.1 3.1-8.2-.1-11.3z"/></svg>
