<svg xmlns="http://www.w3.org/2000/svg" viewBox="0 0 128 128"><path fill="#38BDF8" d="M64 29.4C47.5 29.4 37.5 37.7 34 54.2c6-8.2 13-11.3 21-9.1 4.6 1.2 7.8 4.6 11.5 8.3 5.9 6.2 12.8 13.3 27.8 13.3S111 58.5 114.5 42c-6 8.2-13 11.3-21 9.1-4.6-1.2-7.8-4.6-11.5-8.3-5.9-6.2-12.8-13.4-18-13.4zM34 66.8c-16.5 0-26.5 8.2-30 24.8 6-8.2 13-11.3 21-9.1 4.6 1.2 7.8 4.6 11.5 8.3C42.4 97 49.3 104.1 64.3 104.1s26.5-8.2 30-24.8c-6 8.2-13 11.3-21 9.1-4.6-1.2-7.8-4.6-11.5-8.3-5.9-6.1-12.8-13.3-27.8-13.3z"/></svg>
